<mxfile host="Electron" modified="2024-02-09T17:01:15.243Z" agent="Mozilla/5.0 (Macintosh; Intel Mac OS X 10_15_7) AppleWebKit/537.36 (KHTML, like Gecko) draw.io/23.0.2 Chrome/120.0.6099.109 Electron/28.1.0 Safari/537.36" etag="xrQAMQnC3dmMobyF44dx" version="23.0.2" type="device">
  <diagram name="Page-1" id="c7558073-3199-34d8-9f00-42111426c3f3">
    <mxGraphModel dx="1809" dy="1400" grid="0" gridSize="10" guides="1" tooltips="1" connect="1" arrows="1" fold="1" page="0" pageScale="1" pageWidth="1200" pageHeight="1600" background="#ffffff" math="0" shadow="0">
      <root>
        <mxCell id="0" />
        <mxCell id="1" parent="0" />
        <mxCell id="ydRg1D365hp7sbPTVuLe-101" value="c" style="edgeStyle=orthogonalEdgeStyle;orthogonalLoop=1;jettySize=auto;html=1;exitX=1;exitY=0.5;exitDx=0;exitDy=0;entryX=0;entryY=0.5;entryDx=0;entryDy=0;endArrow=block;endFill=1;strokeWidth=2;" parent="1" source="ydRg1D365hp7sbPTVuLe-99" target="ydRg1D365hp7sbPTVuLe-100" edge="1">
          <mxGeometry relative="1" as="geometry" />
        </mxCell>
        <mxCell id="ydRg1D365hp7sbPTVuLe-107" value="Build&lt;br&gt;&lt;br style=&quot;font-size: 18px;&quot;&gt;(Xcode / SwiftPM)" style="edgeLabel;html=1;align=center;verticalAlign=middle;resizable=0;points=[];fontSize=18;labelBackgroundColor=none;" parent="ydRg1D365hp7sbPTVuLe-101" vertex="1" connectable="0">
          <mxGeometry x="-0.1535" y="-1" relative="1" as="geometry">
            <mxPoint x="17" y="-1" as="offset" />
          </mxGeometry>
        </mxCell>
        <mxCell id="kpgRibpIZsiddVrAp_pB-104" style="edgeStyle=orthogonalEdgeStyle;rounded=1;orthogonalLoop=1;jettySize=auto;html=1;entryX=0.5;entryY=0;entryDx=0;entryDy=0;curved=0;dashed=1;strokeWidth=2;" parent="1" edge="1">
          <mxGeometry relative="1" as="geometry">
            <mxPoint x="597" y="311" as="sourcePoint" />
            <mxPoint x="364" y="412.9999999999998" as="targetPoint" />
            <Array as="points">
              <mxPoint x="364" y="364" />
            </Array>
          </mxGeometry>
        </mxCell>
        <mxCell id="kpgRibpIZsiddVrAp_pB-105" value="&lt;span style=&quot;font-weight: normal;&quot;&gt;&amp;nbsp;Skip Transpiler&amp;nbsp;&lt;br&gt;Plugin&lt;/span&gt;" style="edgeLabel;html=1;align=center;verticalAlign=middle;resizable=0;points=[];fontSize=21;fontStyle=1;labelBackgroundColor=none;" parent="kpgRibpIZsiddVrAp_pB-104" vertex="1" connectable="0">
          <mxGeometry x="0.0863" relative="1" as="geometry">
            <mxPoint y="-1" as="offset" />
          </mxGeometry>
        </mxCell>
        <mxCell id="ydRg1D365hp7sbPTVuLe-99" value="Swift Source Code" style="rounded=1;whiteSpace=wrap;html=1;fontSize=22;fillColor=#fff2cc;strokeColor=#d6b656;fillStyle=auto;" parent="1" vertex="1">
          <mxGeometry x="223" y="220" width="264" height="100" as="geometry" />
        </mxCell>
        <mxCell id="ydRg1D365hp7sbPTVuLe-104" style="edgeStyle=orthogonalEdgeStyle;orthogonalLoop=1;jettySize=auto;html=1;exitX=1;exitY=0.5;exitDx=0;exitDy=0;entryX=0;entryY=0.5;entryDx=0;entryDy=0;strokeWidth=2;" parent="1" source="ydRg1D365hp7sbPTVuLe-100" edge="1">
          <mxGeometry relative="1" as="geometry">
            <mxPoint x="1103" y="270" as="targetPoint" />
          </mxGeometry>
        </mxCell>
        <mxCell id="ydRg1D365hp7sbPTVuLe-106" value="Package&lt;br style=&quot;font-size: 18px;&quot;&gt;.ipa" style="edgeLabel;html=1;align=center;verticalAlign=middle;resizable=0;points=[];fontSize=18;labelBackgroundColor=none;" parent="ydRg1D365hp7sbPTVuLe-104" vertex="1" connectable="0">
          <mxGeometry x="-0.1548" y="-1" relative="1" as="geometry">
            <mxPoint as="offset" />
          </mxGeometry>
        </mxCell>
        <mxCell id="ydRg1D365hp7sbPTVuLe-100" value="Compiled Native Code" style="rounded=1;whiteSpace=wrap;html=1;fontSize=22;fillColor=#dae8fc;strokeColor=#6c8ebf;" parent="1" vertex="1">
          <mxGeometry x="711" y="220" width="264" height="100" as="geometry" />
        </mxCell>
        <mxCell id="kpgRibpIZsiddVrAp_pB-99" style="edgeStyle=orthogonalEdgeStyle;rounded=0;orthogonalLoop=1;jettySize=auto;html=1;exitX=1;exitY=0.5;exitDx=0;exitDy=0;entryX=0;entryY=0.5;entryDx=0;entryDy=0;strokeWidth=2;" parent="1" source="kpgRibpIZsiddVrAp_pB-98" edge="1">
          <mxGeometry relative="1" as="geometry">
            <mxPoint x="1103" y="463" as="targetPoint" />
          </mxGeometry>
        </mxCell>
        <mxCell id="kpgRibpIZsiddVrAp_pB-100" value="Package&lt;br style=&quot;font-size: 18px;&quot;&gt;.apk" style="edgeLabel;html=1;align=center;verticalAlign=middle;resizable=0;points=[];fontSize=18;labelBackgroundColor=none;" parent="kpgRibpIZsiddVrAp_pB-99" vertex="1" connectable="0">
          <mxGeometry x="-0.1791" y="2" relative="1" as="geometry">
            <mxPoint as="offset" />
          </mxGeometry>
        </mxCell>
        <mxCell id="kpgRibpIZsiddVrAp_pB-98" value="Compiled Bytecode" style="rounded=1;whiteSpace=wrap;html=1;fontSize=22;fillColor=#d5e8d4;strokeColor=#82b366;" parent="1" vertex="1">
          <mxGeometry x="711" y="413" width="264" height="100" as="geometry" />
        </mxCell>
        <mxCell id="kpgRibpIZsiddVrAp_pB-102" style="edgeStyle=orthogonalEdgeStyle;rounded=0;orthogonalLoop=1;jettySize=auto;html=1;exitX=1;exitY=0.5;exitDx=0;exitDy=0;entryX=0;entryY=0.5;entryDx=0;entryDy=0;strokeWidth=2;" parent="1" source="kpgRibpIZsiddVrAp_pB-101" target="kpgRibpIZsiddVrAp_pB-98" edge="1">
          <mxGeometry relative="1" as="geometry" />
        </mxCell>
        <mxCell id="kpgRibpIZsiddVrAp_pB-103" value="Build&lt;br&gt;&lt;br style=&quot;font-size: 18px;&quot;&gt;(Studio / Gradle)" style="edgeLabel;html=1;align=center;verticalAlign=middle;resizable=0;points=[];fontSize=18;labelBackgroundColor=none;" parent="kpgRibpIZsiddVrAp_pB-102" vertex="1" connectable="0">
          <mxGeometry x="-0.2504" y="1" relative="1" as="geometry">
            <mxPoint x="21" y="1" as="offset" />
          </mxGeometry>
        </mxCell>
        <mxCell id="kpgRibpIZsiddVrAp_pB-101" value="Kotlin Source Code" style="rounded=1;whiteSpace=wrap;html=1;fontSize=22;fillColor=#e1d5e7;strokeColor=#9673a6;fillStyle=auto;" parent="1" vertex="1">
          <mxGeometry x="223" y="413" width="264" height="100" as="geometry" />
        </mxCell>
        <mxCell id="kpgRibpIZsiddVrAp_pB-117" value="" style="edgeStyle=orthogonalEdgeStyle;orthogonalLoop=1;jettySize=auto;html=1;exitX=1;exitY=0.5;exitDx=0;exitDy=0;entryX=0;entryY=0.5;entryDx=0;entryDy=0;endArrow=block;endFill=1;horizontal=0;strokeWidth=2;" parent="1" source="kpgRibpIZsiddVrAp_pB-121" target="kpgRibpIZsiddVrAp_pB-124" edge="1">
          <mxGeometry relative="1" as="geometry" />
        </mxCell>
        <mxCell id="kpgRibpIZsiddVrAp_pB-118" value="Run Tests&lt;br&gt;&lt;br style=&quot;font-size: 18px;&quot;&gt;(Xcode / SwiftPM)" style="edgeLabel;html=1;align=center;verticalAlign=middle;resizable=0;points=[];fontSize=18;labelBackgroundColor=none;" parent="kpgRibpIZsiddVrAp_pB-117" vertex="1" connectable="0">
          <mxGeometry x="-0.1535" y="-1" relative="1" as="geometry">
            <mxPoint x="9" y="-2" as="offset" />
          </mxGeometry>
        </mxCell>
        <mxCell id="kpgRibpIZsiddVrAp_pB-119" style="edgeStyle=orthogonalEdgeStyle;rounded=1;orthogonalLoop=1;jettySize=auto;html=1;entryX=0.5;entryY=0;entryDx=0;entryDy=0;curved=0;dashed=1;strokeWidth=2;" parent="1" edge="1">
          <mxGeometry relative="1" as="geometry">
            <mxPoint x="588" y="900" as="sourcePoint" />
            <mxPoint x="364" y="1013.9999999999998" as="targetPoint" />
            <Array as="points">
              <mxPoint x="364" y="965" />
            </Array>
          </mxGeometry>
        </mxCell>
        <mxCell id="kpgRibpIZsiddVrAp_pB-120" value="&lt;span style=&quot;font-weight: normal;&quot;&gt;&amp;nbsp;Skip Transpiler&amp;nbsp;&lt;br&gt;&lt;font style=&quot;font-size: 21px;&quot;&gt;Plugin&lt;/font&gt;&lt;/span&gt;" style="edgeLabel;html=1;align=center;verticalAlign=middle;resizable=0;points=[];fontSize=21;fontStyle=1;labelBackgroundColor=none;" parent="kpgRibpIZsiddVrAp_pB-119" vertex="1" connectable="0">
          <mxGeometry x="0.0863" relative="1" as="geometry">
            <mxPoint y="-1" as="offset" />
          </mxGeometry>
        </mxCell>
        <mxCell id="kpgRibpIZsiddVrAp_pB-195" value="&lt;span style=&quot;&quot;&gt;Interface&lt;br&gt;&lt;/span&gt;Parity" style="edgeLabel;html=1;align=left;verticalAlign=middle;resizable=0;points=[];fontSize=21;fontStyle=0;labelBackgroundColor=none;" parent="kpgRibpIZsiddVrAp_pB-119" vertex="1" connectable="0">
          <mxGeometry x="0.0863" relative="1" as="geometry">
            <mxPoint x="862" y="621" as="offset" />
          </mxGeometry>
        </mxCell>
        <mxCell id="kpgRibpIZsiddVrAp_pB-196" value="Dual-Platform&lt;br&gt;Mobile App" style="edgeLabel;html=1;align=left;verticalAlign=middle;resizable=0;points=[];fontSize=21;fontStyle=0;labelBackgroundColor=none;" parent="kpgRibpIZsiddVrAp_pB-119" vertex="1" connectable="0">
          <mxGeometry x="0.0863" relative="1" as="geometry">
            <mxPoint x="812" y="-598" as="offset" />
          </mxGeometry>
        </mxCell>
        <mxCell id="DYWQmIa-Oy31GdTRUYo2-1" value="Test Result&lt;br&gt;Parity" style="edgeLabel;html=1;align=left;verticalAlign=middle;resizable=0;points=[];fontSize=21;fontStyle=0;labelBackgroundColor=none;" vertex="1" connectable="0" parent="kpgRibpIZsiddVrAp_pB-119">
          <mxGeometry x="0.0863" relative="1" as="geometry">
            <mxPoint x="622" y="14" as="offset" />
          </mxGeometry>
        </mxCell>
        <mxCell id="kpgRibpIZsiddVrAp_pB-121" value="Swift XCTest Source" style="rounded=1;whiteSpace=wrap;html=1;fontSize=22;fillColor=#fff2cc;strokeColor=#d6b656;fillStyle=auto;" parent="1" vertex="1">
          <mxGeometry x="223" y="821" width="264" height="100" as="geometry" />
        </mxCell>
        <mxCell id="kpgRibpIZsiddVrAp_pB-124" value="&amp;nbsp;Local Tests&lt;br&gt;(macOS)" style="rounded=1;whiteSpace=wrap;html=1;fontSize=22;fillColor=#dae8fc;strokeColor=#6c8ebf;" parent="1" vertex="1">
          <mxGeometry x="708" y="821" width="293" height="100" as="geometry" />
        </mxCell>
        <mxCell id="kpgRibpIZsiddVrAp_pB-129" value="Local Tests&lt;br&gt;(macOS / Robolectric)" style="rounded=1;whiteSpace=wrap;html=1;fontSize=22;fillColor=#d5e8d4;strokeColor=#82b366;" parent="1" vertex="1">
          <mxGeometry x="709" y="1014" width="293" height="100" as="geometry" />
        </mxCell>
        <mxCell id="kpgRibpIZsiddVrAp_pB-130" style="edgeStyle=orthogonalEdgeStyle;rounded=0;orthogonalLoop=1;jettySize=auto;html=1;exitX=1;exitY=0.5;exitDx=0;exitDy=0;entryX=0;entryY=0.5;entryDx=0;entryDy=0;strokeWidth=2;" parent="1" source="kpgRibpIZsiddVrAp_pB-132" target="kpgRibpIZsiddVrAp_pB-129" edge="1">
          <mxGeometry relative="1" as="geometry" />
        </mxCell>
        <mxCell id="kpgRibpIZsiddVrAp_pB-131" value="Run Tests&lt;br&gt;&lt;br style=&quot;font-size: 18px;&quot;&gt;(Studio / Gradle)" style="edgeLabel;html=1;align=center;verticalAlign=middle;resizable=0;points=[];fontSize=18;labelBackgroundColor=none;" parent="kpgRibpIZsiddVrAp_pB-130" vertex="1" connectable="0">
          <mxGeometry x="-0.2504" y="1" relative="1" as="geometry">
            <mxPoint x="21" y="1" as="offset" />
          </mxGeometry>
        </mxCell>
        <mxCell id="kpgRibpIZsiddVrAp_pB-132" value="Kotlin JUnit Source" style="rounded=1;whiteSpace=wrap;html=1;fontSize=22;fillColor=#e1d5e7;strokeColor=#9673a6;fillStyle=auto;" parent="1" vertex="1">
          <mxGeometry x="223" y="1014" width="264" height="100" as="geometry" />
        </mxCell>
        <mxCell id="kpgRibpIZsiddVrAp_pB-133" value="App Development" style="text;strokeColor=none;align=center;fillColor=none;html=1;verticalAlign=middle;whiteSpace=wrap;rounded=0;fontSize=28;fontStyle=1" parent="1" vertex="1">
          <mxGeometry x="173.31" y="161" width="363.38" height="30" as="geometry" />
        </mxCell>
        <mxCell id="kpgRibpIZsiddVrAp_pB-134" value="Testing" style="text;strokeColor=none;align=center;fillColor=none;html=1;verticalAlign=middle;whiteSpace=wrap;rounded=0;fontSize=28;fontStyle=1" parent="1" vertex="1">
          <mxGeometry x="173.31" y="715" width="363.38" height="30" as="geometry" />
        </mxCell>
        <mxCell id="kpgRibpIZsiddVrAp_pB-136" value="" style="verticalLabelPosition=bottom;verticalAlign=top;html=1;shadow=0;dashed=0;strokeWidth=1;shape=mxgraph.android.phone2;strokeColor=#82b366;fillColor=#d5e8d4;" parent="1" vertex="1">
          <mxGeometry x="1104" y="378.5" width="86.66" height="169" as="geometry" />
        </mxCell>
        <mxCell id="kpgRibpIZsiddVrAp_pB-137" value="&lt;font style=&quot;font-size: 18px;&quot;&gt;Android&lt;br&gt;App&lt;/font&gt;" style="text;html=1;align=center;verticalAlign=middle;resizable=0;points=[];autosize=1;strokeColor=none;fillColor=none;" parent="1" vertex="1">
          <mxGeometry x="1107.3300000000002" y="439" width="80" height="55" as="geometry" />
        </mxCell>
        <mxCell id="kpgRibpIZsiddVrAp_pB-138" value="" style="html=1;verticalLabelPosition=bottom;labelBackgroundColor=#ffffff;verticalAlign=top;shadow=0;dashed=0;strokeWidth=1;shape=mxgraph.ios7.misc.iphone;strokeColor=#6c8ebf;fillColor=#dae8fc;" parent="1" vertex="1">
          <mxGeometry x="1104" y="185" width="85" height="170" as="geometry" />
        </mxCell>
        <mxCell id="kpgRibpIZsiddVrAp_pB-140" value="&lt;font style=&quot;font-size: 18px;&quot;&gt;iOS&lt;br&gt;App&lt;/font&gt;" style="rounded=0;whiteSpace=wrap;html=1;strokeColor=none;" parent="1" vertex="1">
          <mxGeometry x="1111" y="211" width="69" height="117" as="geometry" />
        </mxCell>
        <mxCell id="kpgRibpIZsiddVrAp_pB-146" style="edgeStyle=none;rounded=1;orthogonalLoop=1;jettySize=auto;html=1;entryX=0;entryY=0.5;entryDx=0;entryDy=0;curved=0;strokeWidth=2;" parent="1" target="kpgRibpIZsiddVrAp_pB-141" edge="1">
          <mxGeometry relative="1" as="geometry">
            <mxPoint x="664.6923076923076" y="868.7692307692307" as="targetPoint" />
            <mxPoint x="666" y="869" as="sourcePoint" />
            <Array as="points">
              <mxPoint x="666" y="746" />
            </Array>
          </mxGeometry>
        </mxCell>
        <mxCell id="kpgRibpIZsiddVrAp_pB-141" value="Connected Tests&lt;br&gt;(iOS Simulator / Device)" style="rounded=1;whiteSpace=wrap;html=1;fontSize=22;fillColor=#dae8fc;strokeColor=#6c8ebf;" parent="1" vertex="1">
          <mxGeometry x="709" y="696" width="293" height="100" as="geometry" />
        </mxCell>
        <mxCell id="kpgRibpIZsiddVrAp_pB-142" value="Connected Tests&lt;br&gt;(Android Emulator / Device)" style="rounded=1;whiteSpace=wrap;html=1;fontSize=22;fillColor=#d5e8d4;strokeColor=#82b366;" parent="1" vertex="1">
          <mxGeometry x="709" y="1149" width="293" height="100" as="geometry" />
        </mxCell>
        <mxCell id="kpgRibpIZsiddVrAp_pB-147" style="edgeStyle=none;rounded=1;orthogonalLoop=1;jettySize=auto;html=1;curved=0;strokeWidth=2;" parent="1" edge="1">
          <mxGeometry relative="1" as="geometry">
            <mxPoint x="709" y="1197" as="targetPoint" />
            <mxPoint x="666" y="1065" as="sourcePoint" />
            <Array as="points">
              <mxPoint x="666" y="1197" />
            </Array>
          </mxGeometry>
        </mxCell>
        <mxCell id="kpgRibpIZsiddVrAp_pB-148" value="" style="shape=curlyBracket;whiteSpace=wrap;html=1;rounded=1;flipH=1;labelPosition=right;verticalLabelPosition=middle;align=left;verticalAlign=middle;strokeWidth=2;fillColor=#f5f5f5;fontColor=#333333;strokeColor=#666666;dashed=1;dashPattern=1 1;" parent="1" vertex="1">
          <mxGeometry x="1003" y="745" width="89" height="465" as="geometry" />
        </mxCell>
        <mxCell id="kpgRibpIZsiddVrAp_pB-150" value="" style="shape=curlyBracket;whiteSpace=wrap;html=1;rounded=1;flipH=1;labelPosition=right;verticalLabelPosition=middle;align=left;verticalAlign=middle;strokeWidth=2;fillColor=#f5f5f5;fontColor=#333333;strokeColor=#666666;dashed=1;dashPattern=1 1;" parent="1" vertex="1">
          <mxGeometry x="1003" y="876" width="89" height="203" as="geometry" />
        </mxCell>
        <mxCell id="kpgRibpIZsiddVrAp_pB-152" value="c" style="edgeStyle=orthogonalEdgeStyle;orthogonalLoop=1;jettySize=auto;html=1;exitX=1;exitY=0.5;exitDx=0;exitDy=0;entryX=0;entryY=0.5;entryDx=0;entryDy=0;endArrow=block;endFill=1;strokeWidth=2;" parent="1" source="kpgRibpIZsiddVrAp_pB-156" target="kpgRibpIZsiddVrAp_pB-159" edge="1">
          <mxGeometry relative="1" as="geometry" />
        </mxCell>
        <mxCell id="kpgRibpIZsiddVrAp_pB-153" value="Preview &amp;amp; Build&lt;br&gt;&lt;br style=&quot;font-size: 18px;&quot;&gt;Xcode" style="edgeLabel;html=1;align=center;verticalAlign=middle;resizable=0;points=[];fontSize=18;labelBackgroundColor=none;" parent="kpgRibpIZsiddVrAp_pB-152" vertex="1" connectable="0">
          <mxGeometry x="-0.1535" y="-1" relative="1" as="geometry">
            <mxPoint x="17" y="-1" as="offset" />
          </mxGeometry>
        </mxCell>
        <mxCell id="kpgRibpIZsiddVrAp_pB-154" style="edgeStyle=orthogonalEdgeStyle;rounded=1;orthogonalLoop=1;jettySize=auto;html=1;entryX=0.5;entryY=0;entryDx=0;entryDy=0;curved=0;dashed=1;strokeWidth=2;" parent="1" edge="1">
          <mxGeometry relative="1" as="geometry">
            <mxPoint x="597" y="1524" as="sourcePoint" />
            <mxPoint x="364" y="1626" as="targetPoint" />
            <Array as="points">
              <mxPoint x="364" y="1577" />
            </Array>
          </mxGeometry>
        </mxCell>
        <mxCell id="kpgRibpIZsiddVrAp_pB-155" value="&lt;span style=&quot;font-weight: normal;&quot;&gt;&amp;nbsp;Skip Transpiler&amp;nbsp;&lt;br&gt;Plugin&lt;/span&gt;" style="edgeLabel;html=1;align=center;verticalAlign=middle;resizable=0;points=[];fontSize=21;fontStyle=1;labelBackgroundColor=none;" parent="kpgRibpIZsiddVrAp_pB-154" vertex="1" connectable="0">
          <mxGeometry x="0.0863" relative="1" as="geometry">
            <mxPoint as="offset" />
          </mxGeometry>
        </mxCell>
        <mxCell id="kpgRibpIZsiddVrAp_pB-156" value="SwiftUI Source Code" style="rounded=1;whiteSpace=wrap;html=1;fontSize=22;fillColor=#fff2cc;strokeColor=#d6b656;fillStyle=auto;" parent="1" vertex="1">
          <mxGeometry x="223" y="1433" width="264" height="100" as="geometry" />
        </mxCell>
        <mxCell id="kpgRibpIZsiddVrAp_pB-157" style="edgeStyle=orthogonalEdgeStyle;orthogonalLoop=1;jettySize=auto;html=1;exitX=1;exitY=0.5;exitDx=0;exitDy=0;entryX=0.007;entryY=0.461;entryDx=0;entryDy=0;strokeWidth=2;entryPerimeter=0;" parent="1" source="kpgRibpIZsiddVrAp_pB-159" target="kpgRibpIZsiddVrAp_pB-169" edge="1">
          <mxGeometry relative="1" as="geometry">
            <mxPoint x="1103.0000000000002" y="1483" as="targetPoint" />
          </mxGeometry>
        </mxCell>
        <mxCell id="kpgRibpIZsiddVrAp_pB-159" value="Native iOS Widgets&lt;br&gt;(UIKit)" style="rounded=1;whiteSpace=wrap;html=1;fontSize=22;fillColor=#dae8fc;strokeColor=#6c8ebf;" parent="1" vertex="1">
          <mxGeometry x="711" y="1433" width="264" height="100" as="geometry" />
        </mxCell>
        <mxCell id="kpgRibpIZsiddVrAp_pB-160" style="edgeStyle=orthogonalEdgeStyle;rounded=0;orthogonalLoop=1;jettySize=auto;html=1;exitX=1;exitY=0.5;exitDx=0;exitDy=0;entryX=0.008;entryY=0.469;entryDx=0;entryDy=0;strokeWidth=2;entryPerimeter=0;" parent="1" source="kpgRibpIZsiddVrAp_pB-162" target="kpgRibpIZsiddVrAp_pB-167" edge="1">
          <mxGeometry relative="1" as="geometry">
            <mxPoint x="1103.0000000000002" y="1676" as="targetPoint" />
          </mxGeometry>
        </mxCell>
        <mxCell id="kpgRibpIZsiddVrAp_pB-162" value="Native Android Widgets&lt;br&gt;(Android Views)" style="rounded=1;whiteSpace=wrap;html=1;fontSize=22;fillColor=#d5e8d4;strokeColor=#82b366;" parent="1" vertex="1">
          <mxGeometry x="711" y="1628" width="264" height="100" as="geometry" />
        </mxCell>
        <mxCell id="kpgRibpIZsiddVrAp_pB-163" style="edgeStyle=orthogonalEdgeStyle;rounded=0;orthogonalLoop=1;jettySize=auto;html=1;exitX=1;exitY=0.5;exitDx=0;exitDy=0;entryX=0;entryY=0.5;entryDx=0;entryDy=0;strokeWidth=2;" parent="1" source="kpgRibpIZsiddVrAp_pB-165" target="kpgRibpIZsiddVrAp_pB-162" edge="1">
          <mxGeometry relative="1" as="geometry" />
        </mxCell>
        <mxCell id="kpgRibpIZsiddVrAp_pB-164" value="Build&lt;br&gt;&lt;br style=&quot;font-size: 18px;&quot;&gt;Android Studio" style="edgeLabel;html=1;align=center;verticalAlign=middle;resizable=0;points=[];fontSize=18;labelBackgroundColor=none;" parent="kpgRibpIZsiddVrAp_pB-163" vertex="1" connectable="0">
          <mxGeometry x="-0.2504" y="1" relative="1" as="geometry">
            <mxPoint x="21" y="1" as="offset" />
          </mxGeometry>
        </mxCell>
        <mxCell id="kpgRibpIZsiddVrAp_pB-198" value="iPhone Simulator" style="edgeLabel;html=1;align=center;verticalAlign=middle;resizable=0;points=[];fontSize=18;labelBackgroundColor=none;" parent="kpgRibpIZsiddVrAp_pB-163" vertex="1" connectable="0">
          <mxGeometry x="-0.2504" y="1" relative="1" as="geometry">
            <mxPoint x="481" y="-210" as="offset" />
          </mxGeometry>
        </mxCell>
        <mxCell id="kpgRibpIZsiddVrAp_pB-199" value="Android Emulator" style="edgeLabel;html=1;align=center;verticalAlign=middle;resizable=0;points=[];fontSize=18;labelBackgroundColor=none;" parent="kpgRibpIZsiddVrAp_pB-163" vertex="1" connectable="0">
          <mxGeometry x="-0.2504" y="1" relative="1" as="geometry">
            <mxPoint x="484" y="-15" as="offset" />
          </mxGeometry>
        </mxCell>
        <mxCell id="kpgRibpIZsiddVrAp_pB-165" value="SkipUI Source Code" style="rounded=1;whiteSpace=wrap;html=1;fontSize=22;fillColor=#e1d5e7;strokeColor=#9673a6;fillStyle=auto;" parent="1" vertex="1">
          <mxGeometry x="223" y="1628" width="264" height="100" as="geometry" />
        </mxCell>
        <mxCell id="kpgRibpIZsiddVrAp_pB-166" value="UI Development" style="text;strokeColor=none;align=center;fillColor=none;html=1;verticalAlign=middle;whiteSpace=wrap;rounded=0;fontSize=28;fontStyle=1" parent="1" vertex="1">
          <mxGeometry x="173.31" y="1374" width="363.38" height="30" as="geometry" />
        </mxCell>
        <mxCell id="kpgRibpIZsiddVrAp_pB-167" value="" style="verticalLabelPosition=bottom;verticalAlign=top;html=1;shadow=0;dashed=0;strokeWidth=1;shape=mxgraph.android.phone2;strokeColor=#82b366;fillColor=#d5e8d4;" parent="1" vertex="1">
          <mxGeometry x="1154.0000000000002" y="1598.5" width="86.66" height="169" as="geometry" />
        </mxCell>
        <mxCell id="kpgRibpIZsiddVrAp_pB-169" value="" style="html=1;verticalLabelPosition=bottom;labelBackgroundColor=#ffffff;verticalAlign=top;shadow=0;dashed=0;strokeWidth=1;shape=mxgraph.ios7.misc.iphone;strokeColor=#6c8ebf;fillColor=#dae8fc;" parent="1" vertex="1">
          <mxGeometry x="1154.0000000000002" y="1404" width="85" height="170" as="geometry" />
        </mxCell>
        <mxCell id="kpgRibpIZsiddVrAp_pB-170" value="" style="rounded=0;whiteSpace=wrap;html=1;strokeColor=none;" parent="1" vertex="1">
          <mxGeometry x="1161.0000000000002" y="1430" width="69" height="117" as="geometry" />
        </mxCell>
        <mxCell id="kpgRibpIZsiddVrAp_pB-186" value="" style="strokeWidth=1;shadow=0;dashed=0;align=center;html=1;shape=mxgraph.mockup.buttons.button;strokeColor=#82b366;mainText=;buttonStyle=round;fontSize=17;fontStyle=1;fillColor=#d5e8d4;whiteSpace=wrap;fillStyle=auto;gradientColor=#97d077;" parent="1" vertex="1">
          <mxGeometry x="1166.5" y="1640" width="60" height="20" as="geometry" />
        </mxCell>
        <mxCell id="kpgRibpIZsiddVrAp_pB-189" value="" style="strokeWidth=1;shadow=0;dashed=0;align=center;html=1;shape=mxgraph.mockup.buttons.button;strokeColor=#82b366;mainText=;buttonStyle=round;fontSize=17;fontStyle=1;fillColor=#d5e8d4;whiteSpace=wrap;fillStyle=auto;gradientColor=#97d077;" parent="1" vertex="1">
          <mxGeometry x="1166.5" y="1672" width="60" height="20" as="geometry" />
        </mxCell>
        <mxCell id="kpgRibpIZsiddVrAp_pB-190" value="" style="strokeWidth=1;shadow=0;dashed=0;align=center;html=1;shape=mxgraph.mockup.buttons.button;strokeColor=#82b366;mainText=;buttonStyle=round;fontSize=17;fontStyle=1;fillColor=#d5e8d4;whiteSpace=wrap;fillStyle=auto;gradientColor=#97d077;" parent="1" vertex="1">
          <mxGeometry x="1166.5" y="1704" width="60" height="20" as="geometry" />
        </mxCell>
        <mxCell id="kpgRibpIZsiddVrAp_pB-191" value="" style="strokeWidth=1;shadow=0;dashed=0;align=center;html=1;shape=mxgraph.mockup.buttons.button;strokeColor=#6c8ebf;mainText=;buttonStyle=round;fontSize=17;fontStyle=1;fillColor=#dae8fc;whiteSpace=wrap;fillStyle=auto;gradientColor=#7ea6e0;" parent="1" vertex="1">
          <mxGeometry x="1166.5" y="1447" width="60" height="20" as="geometry" />
        </mxCell>
        <mxCell id="kpgRibpIZsiddVrAp_pB-192" value="" style="strokeWidth=1;shadow=0;dashed=0;align=center;html=1;shape=mxgraph.mockup.buttons.button;strokeColor=#6c8ebf;mainText=;buttonStyle=round;fontSize=17;fontStyle=1;fillColor=#dae8fc;whiteSpace=wrap;fillStyle=auto;gradientColor=#7ea6e0;" parent="1" vertex="1">
          <mxGeometry x="1166.5" y="1479" width="60" height="20" as="geometry" />
        </mxCell>
        <mxCell id="kpgRibpIZsiddVrAp_pB-193" value="" style="strokeWidth=1;shadow=0;dashed=0;align=center;html=1;shape=mxgraph.mockup.buttons.button;strokeColor=#6c8ebf;mainText=;buttonStyle=round;fontSize=17;fontStyle=1;fillColor=#dae8fc;whiteSpace=wrap;fillStyle=auto;gradientColor=#7ea6e0;" parent="1" vertex="1">
          <mxGeometry x="1166.5" y="1511" width="60" height="20" as="geometry" />
        </mxCell>
        <mxCell id="kpgRibpIZsiddVrAp_pB-194" value="" style="shape=curlyBracket;whiteSpace=wrap;html=1;rounded=1;flipH=1;labelPosition=right;verticalLabelPosition=middle;align=left;verticalAlign=middle;strokeWidth=2;fillColor=#f5f5f5;fontColor=#333333;strokeColor=#666666;dashed=1;dashPattern=1 1;" parent="1" vertex="1">
          <mxGeometry x="1242" y="1482" width="89" height="203" as="geometry" />
        </mxCell>
        <mxCell id="kpgRibpIZsiddVrAp_pB-197" value="" style="shape=curlyBracket;whiteSpace=wrap;html=1;rounded=1;flipH=1;labelPosition=right;verticalLabelPosition=middle;align=left;verticalAlign=middle;strokeWidth=2;fillColor=#f5f5f5;fontColor=#333333;strokeColor=#666666;dashed=1;dashPattern=1 1;" parent="1" vertex="1">
          <mxGeometry x="1192" y="265" width="89" height="203" as="geometry" />
        </mxCell>
      </root>
    </mxGraphModel>
  </diagram>
</mxfile>
